<svg xmlns="http://www.w3.org/2000/svg" width="512" height="512" viewBox="0 0 512 512">
  <defs>
    <linearGradient id="bg" x1="0" y1="0" x2="1" y2="1">
      <stop offset="0%" stop-color="#064e3b"/>
      <stop offset="100%" stop-color="#022c22"/>
    </linearGradient>
    <linearGradient id="leaf" x1="0" y1="0" x2="0" y2="1">
      <stop offset="0%" stop-color="#22c55e"/>
      <stop offset="100%" stop-color="#16a34a"/>
    </linearGradient>
  </defs>
  <rect width="512" height="512" rx="64" fill="url(#bg)"/>
  <circle cx="256" cy="240" r="120" fill="url(#leaf)" opacity="0.15"/>
  <path d="M256 128c-48 0-88 40-88 88 0 72 88 128 88 128s88-56 88-128c0-48-40-88-88-88zm0 24c32 0 56 24 56 56 0 52-56 88-56 88s-56-36-56-88c0-32 24-56 56-56z" fill="#22c55e"/>
  <path d="M256 196l-20 48h40z" fill="#16a34a"/>
  <text x="256" y="440" text-anchor="middle" font-family="system-ui" font-weight="bold" font-size="36" fill="#22c55e">VELORAGREEN</text>
</svg>
