<svg xmlns="http://www.w3.org/2000/svg" width="192" height="192" viewBox="0 0 192 192">
  <defs>
    <linearGradient id="bg" x1="0" y1="0" x2="1" y2="1">
      <stop offset="0%" stop-color="#064e3b"/>
      <stop offset="100%" stop-color="#022c22"/>
    </linearGradient>
    <linearGradient id="leaf" x1="0" y1="0" x2="0" y2="1">
      <stop offset="0%" stop-color="#22c55e"/>
      <stop offset="100%" stop-color="#16a34a"/>
    </linearGradient>
  </defs>
  <rect width="192" height="192" rx="32" fill="url(#bg)"/>
  <circle cx="96" cy="88" r="48" fill="url(#leaf)" opacity="0.2"/>
  <path d="M96 48C78 48 64 62 64 80c0 28 32 48 32 48s32-20 32-48c0-18-14-32-32-32zm0 8c14 0 24 10 24 24 0 20-24 36-24 36s-24-16-24-36c0-14 10-24 24-24z" fill="#22c55e"/>
  <path d="M96 72l-8 20h16z" fill="#16a34a"/>
  <text x="96" y="160" text-anchor="middle" font-family="system-ui" font-weight="bold" font-size="14" fill="#22c55e">VELORAGREEN</text>
</svg>
